<?xml version="1.0" standalone="no"?>
<!DOCTYPE svg PUBLIC "-//W3C//DTD SVG 20010904//EN"
 "http://www.w3.org/TR/2001/REC-SVG-20010904/DTD/svg10.dtd">
<svg version="1.0" xmlns="http://www.w3.org/2000/svg"
 width="512.000000pt" height="512.000000pt" viewBox="0 0 512.000000 512.000000"
 preserveAspectRatio="xMidYMid meet">

<g transform="translate(0.000000,512.000000) scale(0.100000,-0.100000)"
fill="#000000" stroke="none">
<path d="M572 4419 c-114 -22 -217 -101 -269 -207 l-28 -57 0 -1595 0 -1595
28 -57 c54 -109 154 -185 277 -208 77 -15 3886 -14 3965 1 118 22 218 98 272
207 l28 57 0 1595 0 1595 -28 57 c-54 111 -152 185 -272 207 -71 13 -3906 14
-3973 0z m770 -1072 c15 -7 205 -164 422 -350 275 -236 398 -348 407 -370 17
-41 17 -93 0 -134 -15 -37 -780 -699 -834 -722 -92 -38 -203 29 -214 131 -9
82 0 93 340 383 173 149 315 272 315 275 0 3 -142 126 -315 275 -322 275 -343
297 -343 364 0 113 120 193 222 148z m2581 -1506 c51 -31 81 -91 74 -149 -5
-50 -29 -87 -77 -119 l-33 -23 -742 0 -742 0 -34 23 c-49 32 -83 105 -74 158
9 50 63 115 109 128 18 6 338 9 756 8 l725 -2 38 -24z"/>
</g>
</svg>
