<?xml version="1.0" encoding="UTF-8" standalone="no"?>
<!DOCTYPE svg PUBLIC "-//W3C//DTD SVG 1.1//EN" "http://www.w3.org/Graphics/SVG/1.1/DTD/svg11.dtd">
<svg xmlns="http://www.w3.org/2000/svg" version="1.1" viewBox="0.00 0.00 256.00 256.00" class="w-5 h-5 inline">
<path fill="currentColor" d="
  M 81.35 67.39
  Q 82.75 67.34 84.81 66.94
  C 88.96 66.15 93.87 66.52 100.55 66.55
  Q 109.44 66.58 114.54 67.22
  Q 117.49 67.59 123.85 68.04
  Q 127.21 68.28 133.14 69.08
  C 156.32 72.23 179.28 78.10 200.69 87.73
  A 0.46 0.46 0.0 0 0 201.31 87.47
  Q 204.80 78.21 207.90 67.59
  Q 212.97 50.23 211.46 33.08
  Q 211.30 31.35 212.98 31.50
  L 213.70 31.57
  A 2.60 2.60 0.0 0 1 215.98 33.52
  Q 220.42 51.15 218.12 68.89
  Q 216.36 82.53 212.36 93.16
  Q 212.17 93.66 212.66 93.90
  Q 229.44 102.15 242.31 115.71
  C 248.28 122.00 253.46 130.25 254.74 138.84
  Q 257.23 155.45 244.80 166.77
  Q 237.04 173.84 225.70 178.22
  C 207.27 185.34 185.61 187.15 165.51 186.91
  Q 163.53 186.89 164.86 185.42
  Q 172.86 176.59 180.29 167.25
  Q 180.73 166.69 181.29 166.36
  Q 182.15 165.85 182.56 165.79
  Q 195.35 163.90 206.31 156.84
  Q 212.31 152.97 215.70 146.21
  Q 218.82 139.99 215.83 133.50
  C 212.98 127.31 208.14 122.19 203.07 117.76
  A 0.57 0.57 0.0 0 0 202.15 118.00
  Q 200.69 122.20 198.40 126.39
  Q 174.96 169.34 138.01 201.00
  Q 131.52 206.56 124.77 211.07
  A 0.45 0.45 0.0 0 0 124.68 211.74
  Q 132.28 220.50 134.91 223.48
  Q 145.59 235.58 159.20 244.28
  C 161.52 245.77 164.89 247.06 167.28 248.33
  A 1.39 1.38 43.0 0 1 167.37 250.73
  Q 166.13 251.51 164.46 251.12
  C 145.04 246.52 128.05 233.89 114.72 218.98
  A 1.07 1.06 -35.9 0 0 113.38 218.77
  C 99.39 227.08 84.99 233.24 68.94 234.64
  Q 64.37 235.03 58.29 233.71
  Q 40.02 229.75 35.24 211.80
  Q 32.29 200.75 34.22 187.96
  Q 37.09 168.99 46.91 149.19
  Q 51.09 140.77 56.24 132.23
  Q 56.84 131.24 57.25 130.98
  Q 58.25 130.33 58.61 131.47
  Q 62.36 143.38 66.61 154.18
  Q 66.74 154.52 66.69 155.62
  Q 66.65 156.35 66.42 157.02
  Q 62.65 167.71 62.26 178.04
  Q 62.06 183.34 63.87 188.74
  Q 68.24 201.78 81.01 202.16
  Q 84.35 202.25 89.66 201.00
  Q 93.91 200.00 98.14 198.95
  A 0.51 0.51 0.0 0 0 98.42 198.15
  Q 96.03 194.95 93.83 191.46
  Q 62.70 142.00 55.79 84.25
  A 0.62 0.62 0.0 0 0 55.03 83.72
  C 52.89 84.24 50.86 84.91 49.10 85.17
  Q 29.91 88.06 16.02 94.81
  Q 7.36 99.02 4.88 101.10
  Q 3.43 102.32 1.58 102.23
  A 1.23 1.23 0.0 0 1 0.48 100.60
  Q 1.43 97.92 3.98 95.47
  Q 13.19 86.66 25.15 80.90
  Q 39.42 74.03 54.46 71.32
  A 1.02 1.01 -6.0 0 0 55.29 70.30
  C 55.05 62.41 54.99 52.70 56.73 44.46
  C 58.63 35.48 60.59 28.59 65.09 20.85
  Q 72.46 8.22 86.69 4.92
  Q 88.38 4.53 94.11 4.77
  Q 98.26 4.94 101.39 5.92
  Q 111.84 9.23 119.83 15.30
  C 136.58 28.05 148.57 45.28 159.08 63.94
  Q 159.87 65.33 159.92 65.95
  Q 160.00 66.95 159.02 66.72
  Q 146.92 63.82 134.22 62.06
  A 2.45 2.42 -15.2 0 1 132.63 61.16
  C 127.99 55.42 120.83 49.15 114.73 45.93
  Q 108.25 42.50 102.73 42.02
  Q 91.02 40.99 85.30 52.80
  Q 81.82 59.98 80.80 66.78
  Q 80.71 67.41 81.35 67.39
  Z
  M 189.75 111.75
  C 190.23 110.97 190.62 110.71 191.11 110.15
  Q 191.53 109.67 190.97 109.36
  Q 155.77 89.82 117.32 84.20
  Q 101.84 81.94 80.27 81.76
  Q 79.75 81.76 79.74 82.28
  Q 79.57 90.92 79.71 92.76
  Q 83.61 146.29 111.40 191.95
  Q 111.66 192.37 112.07 192.10
  Q 114.21 190.70 121.68 185.75
  C 146.48 169.31 167.34 147.60 183.09 122.59
  Q 184.16 120.89 189.75 111.75
  Z"
/>
</svg>
