<?xml version="1.0" encoding="UTF-8" standalone="no"?>
<!DOCTYPE svg PUBLIC "-//W3C//DTD SVG 1.1//EN" "http://www.w3.org/Graphics/SVG/1.1/DTD/svg11.dtd">
<svg xmlns="http://www.w3.org/2000/svg" version="1.1" viewBox="0.00 0.00 256.00 256.00" class="w-5 h-5 inline">
<path fill="currentColor" d="
  M 142.17 91.07
  L 41.23 91.11
  A 1.59 1.59 0.0 0 1 39.87 88.69
  L 54.17 65.11
  A 1.59 1.59 0.0 0 1 55.53 64.34
  L 157.07 64.33
  A 1.59 1.59 0.0 0 1 158.42 66.77
  L 143.52 90.33
  A 1.59 1.59 0.0 0 1 142.17 91.07
  Z"
/>
<path fill="currentColor" d="
  M 256.00 188.39
  L 256.00 190.59
  L 227.95 190.66
  A 2.34 2.34 0.0 0 1 225.97 189.57
  L 211.41 166.63
  A 2.30 2.29 -16.1 0 0 209.44 165.55
  Q 172.68 165.65 167.75 165.76
  Q 166.71 165.79 166.41 165.65
  Q 164.93 164.98 165.80 163.61
  L 180.18 140.79
  A 2.35 2.35 0.0 0 1 182.17 139.69
  L 193.60 139.69
  Q 194.63 139.69 194.06 138.83
  Q 185.70 126.34 178.80 114.29
  A 0.24 0.24 0.0 0 0 178.38 114.28
  L 130.82 189.74
  A 1.85 1.84 16.0 0 1 129.26 190.60
  L 0.00 190.59
  L 0.00 189.73
  L 30.35 141.31
  Q 30.67 140.80 30.06 140.80
  L 9.46 140.80
  Q 8.70 140.80 8.63 140.04
  Q 8.57 139.42 9.09 138.57
  Q 10.96 135.51 23.40 115.05
  Q 23.69 114.57 24.25 114.57
  L 123.78 114.57
  A 0.91 0.91 0.0 0 1 124.68 115.62
  Q 124.53 116.52 123.79 117.82
  Q 123.74 117.91 109.99 139.83
  A 2.33 2.31 15.9 0 1 108.02 140.92
  L 61.99 140.92
  Q 61.44 140.92 61.15 141.39
  L 47.13 163.62
  Q 46.46 164.69 47.73 164.69
  L 114.79 164.69
  A 1.72 1.71 14.5 0 0 116.29 163.81
  Q 117.98 160.77 118.57 159.81
  Q 146.41 114.90 177.10 65.67
  A 1.77 1.75 -62.2 0 1 179.30 64.98
  Q 179.98 65.28 180.67 66.39
  Q 242.81 166.79 252.22 182.01
  Q 255.01 186.52 256.00 188.39
  Z"
/>
</svg>
