<?xml version="1.0" encoding="UTF-8" standalone="no"?>
<!DOCTYPE svg PUBLIC "-//W3C//DTD SVG 1.1//EN" "http://www.w3.org/Graphics/SVG/1.1/DTD/svg11.dtd">
<svg xmlns="http://www.w3.org/2000/svg" version="1.1" viewBox="0.00 0.00 256.00 256.00" class="w-5 h-5 inline">
<path fill="currentColor" d="
  M 224.84 1.86
  C 231.06 3.01 235.32 7.10 237.32 13.06
  Q 238.19 15.65 238.18 21.59
  Q 238.07 97.13 238.06 195.33
  Q 238.06 203.47 236.96 206.55
  Q 234.85 212.50 228.60 215.14
  Q 190.03 231.44 132.56 255.31
  C 128.45 257.02 121.68 254.87 116.33 252.67
  Q 72.90 234.86 26.45 215.08
  Q 21.56 213.00 19.36 208.43
  Q 17.96 205.52 17.95 199.35
  Q 17.86 109.48 17.83 19.63
  Q 17.83 14.07 19.18 11.14
  Q 21.60 5.85 26.71 3.19
  Q 28.40 2.31 32.37 1.46
  Q 34.93 0.91 38.21 0.91
  Q 175.69 0.91 220.08 0.92
  C 221.85 0.92 223.48 1.60 224.84 1.86
  Z
  M 127.90 249.10
  C 130.93 249.10 134.57 247.48 137.29 246.34
  Q 193.33 222.84 224.94 209.52
  Q 230.98 206.98 231.32 200.56
  Q 231.48 197.66 231.48 194.75
  Q 231.37 49.46 231.35 24.26
  C 231.35 22.21 231.04 20.08 230.78 18.26
  C 230.17 13.87 228.41 10.76 224.17 9.17
  Q 222.01 8.37 217.27 8.36
  Q 202.82 8.33 127.96 8.31
  Q 53.10 8.29 38.65 8.32
  Q 33.91 8.32 31.74 9.12
  C 27.50 10.71 25.74 13.82 25.13 18.21
  C 24.87 20.03 24.56 22.16 24.56 24.21
  Q 24.52 49.41 24.34 194.70
  Q 24.34 197.61 24.50 200.51
  Q 24.84 206.93 30.88 209.47
  Q 62.48 222.81 118.51 246.34
  C 121.23 247.48 124.87 249.10 127.90 249.10
  Z"
/>
<path fill="currentColor" d="
  M 184.24 48.84
  C 180.73 48.45 176.29 48.41 176.23 52.89
  Q 176.07 64.19 176.05 114.22
  Q 176.05 115.95 177.41 117.42
  Q 178.42 118.51 180.37 118.42
  Q 180.40 118.42 184.05 118.46
  Q 188.36 118.50 188.40 114.24
  Q 188.53 102.92 188.39 92.31
  A 0.63 0.63 0.0 0 1 189.02 91.67
  L 203.62 91.67
  Q 204.18 91.67 204.17 92.23
  Q 204.01 102.19 204.08 111.49
  Q 204.14 118.47 202.20 123.96
  C 201.43 126.15 198.79 128.84 196.83 129.89
  Q 192.27 132.34 186.27 132.44
  C 176.85 132.60 166.08 133.19 161.94 124.03
  Q 160.36 120.56 160.32 112.93
  Q 160.20 91.62 160.24 51.11
  Q 160.25 48.93 160.71 46.96
  Q 161.40 44.07 161.93 42.93
  Q 163.86 38.76 168.34 36.58
  Q 169.79 35.87 174.29 34.97
  Q 176.92 34.44 184.64 34.69
  Q 191.74 34.93 194.85 36.21
  Q 203.43 39.74 203.55 50.76
  Q 203.71 65.67 203.65 71.95
  A 0.84 0.84 0.0 0 1 202.81 72.78
  L 189.26 72.78
  A 1.10 1.10 0.0 0 1 188.16 71.67
  Q 188.19 60.81 188.17 55.54
  Q 188.17 53.71 187.57 51.33
  C 187.10 49.45 185.91 49.03 184.24 48.84
  Z"
/>
<path fill="currentColor" d="
  M 67.22 50.45
  L 67.29 74.80
  A 0.56 0.56 0.0 0 0 67.86 75.36
  L 83.92 75.15
  A 0.56 0.56 0.0 0 1 84.49 75.71
  L 84.38 89.27
  A 0.56 0.56 0.0 0 1 83.82 89.82
  L 67.78 89.60
  A 0.56 0.56 0.0 0 0 67.21 90.16
  L 67.26 116.62
  A 0.56 0.56 0.0 0 0 67.82 117.18
  L 84.77 117.03
  A 0.56 0.56 0.0 0 1 85.34 117.59
  L 85.47 130.98
  A 0.56 0.56 0.0 0 1 84.92 131.54
  L 52.46 131.60
  A 0.56 0.56 0.0 0 1 51.90 131.04
  L 51.82 36.17
  A 0.56 0.56 0.0 0 1 52.38 35.61
  L 84.91 35.65
  A 0.56 0.56 0.0 0 1 85.47 36.22
  L 85.32 49.52
  A 0.56 0.56 0.0 0 1 84.75 50.07
  L 67.79 49.89
  A 0.56 0.56 0.0 0 0 67.22 50.45
  Z"
/>
<path fill="currentColor" d="
  M 107.45 96.93
  A 0.59 0.58 -87.8 0 0 106.82 97.52
  L 106.82 130.99
  A 0.57 0.56 -0.0 0 1 106.25 131.55
  L 91.43 131.55
  A 0.35 0.34 -0.0 0 1 91.08 131.21
  L 91.08 36.19
  A 0.52 0.52 0.0 0 1 91.59 35.67
  Q 108.24 35.47 118.00 35.84
  C 126.30 36.15 131.48 40.88 132.48 48.85
  Q 132.88 51.98 132.88 53.00
  Q 132.94 71.21 132.86 78.36
  C 132.83 80.97 132.69 84.76 131.75 87.36
  Q 129.55 93.53 123.88 95.80
  Q 121.01 96.95 115.77 97.13
  Q 111.71 97.27 107.45 96.93
  Z
  M 106.85 81.22
  A 2.26 2.26 0.0 0 0 109.32 83.47
  L 115.13 82.91
  A 2.26 2.26 0.0 0 0 117.18 80.66
  L 117.17 52.13
  A 2.26 2.26 0.0 0 0 115.11 49.87
  L 109.30 49.35
  A 2.26 2.26 0.0 0 0 106.84 51.60
  L 106.85 81.22
  Z"
/>
<rect fill="currentColor" x="138.08" y="35.63" width="15.80" height="95.90" rx="0.48"/>
<path fill="currentColor" d="
  M 71.10 172.54
  Q 70.32 172.31 67.90 172.63
  Q 66.03 172.89 66.03 170.99
  L 66.03 167.24
  Q 66.03 165.41 67.86 165.41
  L 78.96 165.41
  A 1.43 1.42 1.2 0 1 80.39 166.89
  Q 80.17 172.88 80.15 178.40
  Q 80.14 179.76 78.35 180.81
  Q 69.31 186.08 59.85 182.47
  C 52.98 179.84 50.38 172.66 51.54 165.55
  C 52.72 158.36 58.69 153.39 65.96 153.18
  Q 69.43 153.08 71.53 153.49
  Q 74.04 153.98 76.84 155.43
  Q 78.58 156.33 78.82 156.71
  C 79.49 157.77 79.05 159.13 78.21 159.95
  Q 75.84 162.29 74.65 163.30
  Q 74.26 163.62 73.79 163.46
  C 72.55 163.03 71.44 161.82 70.44 161.49
  Q 65.18 159.75 62.04 163.62
  Q 60.23 165.86 60.35 169.16
  C 60.54 174.40 64.98 177.45 69.98 176.26
  C 71.77 175.84 72.06 174.84 71.74 173.24
  Q 71.63 172.70 71.10 172.54
  Z"
/>
<path fill="currentColor" d="
  M 195.69 175.48
  Q 196.10 174.01 194.22 173.34
  Q 192.49 172.72 188.45 171.59
  Q 184.20 170.40 182.87 169.32
  Q 178.03 165.39 180.81 158.81
  C 182.96 153.72 188.07 153.05 193.33 153.31
  Q 198.15 153.54 202.23 156.09
  C 204.77 157.67 201.55 161.06 200.20 162.43
  A 1.63 1.62 -57.6 0 1 198.47 162.82
  C 195.31 161.64 193.07 160.42 190.12 160.68
  Q 189.33 160.75 189.03 161.22
  Q 188.65 161.82 188.92 162.60
  A 2.14 2.14 0.0 0 0 190.50 164.03
  Q 192.61 164.49 197.18 165.71
  C 200.55 166.61 203.90 168.83 204.21 172.78
  C 205.29 186.41 187.60 185.45 180.21 180.42
  A 2.04 2.03 -57.9 0 1 179.60 177.72
  L 181.61 174.24
  Q 182.56 172.60 184.20 173.55
  Q 185.85 174.51 188.74 175.79
  Q 191.46 177.00 194.77 176.34
  A 1.22 1.21 -88.0 0 0 195.69 175.48
  Z"
/>
<path fill="currentColor" d="
  M 98.53 153.56
  Q 100.36 153.57 102.16 153.56
  A 0.93 0.92 -10.7 0 1 103.02 154.14
  L 114.57 182.32
  A 0.93 0.93 0.0 0 1 113.71 183.60
  L 107.13 183.60
  A 1.85 1.83 78.8 0 1 105.43 182.45
  L 103.85 178.59
  A 1.06 1.05 -12.3 0 0 102.83 177.94
  Q 100.60 178.05 98.45 178.04
  Q 96.30 178.04 94.07 177.91
  A 1.06 1.05 12.6 0 0 93.04 178.56
  L 91.44 182.41
  A 1.85 1.83 -78.4 0 1 89.73 183.54
  L 83.15 183.50
  A 0.93 0.93 0.0 0 1 82.30 182.22
  L 94.03 154.11
  A 0.93 0.92 11.1 0 1 94.89 153.54
  Q 96.69 153.56 98.53 153.56
  Z
  M 95.93 170.13
  A 0.59 0.59 0.0 0 0 96.47 170.95
  L 100.26 170.99
  A 0.59 0.59 0.0 0 0 100.82 170.19
  L 98.97 165.44
  A 0.59 0.59 0.0 0 0 97.88 165.43
  L 95.93 170.13
  Z"
/>
<path fill="currentColor" d="
  M 138.48 168.85
  Q 135.69 173.70 134.60 175.86
  A 2.45 2.21 -15.4 0 1 134.30 176.33
  Q 132.15 178.93 130.84 176.40
  Q 129.19 173.21 126.20 168.30
  Q 125.39 166.96 125.45 168.52
  L 126.00 182.76
  Q 126.03 183.54 125.25 183.54
  L 117.70 183.54
  A 0.57 0.57 0.0 0 1 117.13 182.97
  L 117.13 153.91
  Q 117.13 153.52 117.52 153.52
  L 125.65 153.52
  A 0.94 0.93 75.0 0 1 126.46 153.99
  L 132.21 163.95
  A 0.47 0.47 0.0 0 0 133.03 163.95
  L 138.78 153.99
  Q 139.04 153.54 139.57 153.54
  L 147.72 153.54
  Q 148.13 153.54 148.13 153.95
  L 148.13 182.83
  A 0.70 0.70 0.0 0 1 147.43 183.53
  L 139.95 183.53
  Q 139.15 183.53 139.19 182.74
  Q 139.67 173.05 139.52 169.11
  Q 139.45 167.17 138.48 168.85
  Z"
/>
<path fill="currentColor" d="
  M 175.41 168.48
  Q 175.42 170.19 175.34 171.35
  Q 175.30 171.91 174.74 171.91
  L 162.91 171.91
  Q 161.20 171.91 161.20 173.62
  L 161.20 174.30
  Q 161.20 175.86 162.76 175.86
  L 176.07 175.86
  Q 176.86 175.86 176.86 176.65
  L 176.86 182.86
  Q 176.86 183.46 176.26 183.46
  L 153.72 183.46
  A 0.80 0.80 0.0 0 1 152.92 182.69
  Q 152.89 181.73 152.85 168.56
  Q 152.80 155.38 152.83 154.42
  A 0.80 0.80 0.0 0 1 153.62 153.65
  L 176.16 153.50
  Q 176.76 153.50 176.77 154.10
  L 176.81 160.31
  Q 176.81 161.10 176.02 161.10
  L 162.71 161.19
  Q 161.15 161.20 161.16 162.76
  L 161.17 163.44
  Q 161.18 165.15 162.89 165.14
  L 174.72 165.06
  Q 175.28 165.06 175.32 165.61
  Q 175.41 166.77 175.41 168.48
  Z"
/>
<path fill="currentColor" d="
  M 93.36 219.90
  C 91.13 219.24 88.43 219.09 88.72 216.93
  A 0.70 0.70 0.0 0 1 89.41 216.33
  L 166.40 216.33
  Q 166.94 216.33 167.10 216.85
  Q 167.29 217.45 167.04 218.10
  Q 166.86 218.56 166.39 218.70
  Q 151.62 222.80 129.07 230.59
  Q 127.32 231.20 125.10 230.44
  Q 97.28 221.06 93.36 219.90
  Z"
/>
</svg>
