<?xml version="1.0" encoding="UTF-8" standalone="no"?>
<!DOCTYPE svg PUBLIC "-//W3C//DTD SVG 1.1//EN" "http://www.w3.org/Graphics/SVG/1.1/DTD/svg11.dtd">
<svg xmlns="http://www.w3.org/2000/svg" version="1.1" viewBox="0.00 0.00 256.00 256.00" class="w-5 h-5 inline">
<path fill="currentColor" d="
  M 24.28 48.54
  C 21.72 48.59 20.67 50.90 20.66 53.13
  Q 20.66 55.83 20.56 78.76
  Q 20.54 83.90 24.42 84.81
  Q 24.93 84.93 30.61 84.96
  Q 39.19 85.00 47.23 84.89
  Q 47.65 84.88 47.65 85.31
  L 47.65 103.94
  Q 47.65 104.42 47.17 104.42
  Q 29.77 104.28 16.62 104.42
  Q 11.67 104.47 9.10 103.15
  Q 4.95 101.01 2.32 96.72
  Q 1.20 94.90 1.21 91.51
  Q 1.33 54.48 1.12 41.82
  Q 1.07 38.58 2.26 36.50
  C 4.32 32.90 7.90 29.12 12.25 29.09
  Q 20.20 29.03 65.73 29.04
  C 69.23 29.04 74.44 34.40 75.93 37.70
  Q 76.94 39.94 76.94 45.10
  Q 76.90 113.53 76.83 124.00
  Q 76.82 125.16 76.01 127.01
  Q 72.78 134.39 65.99 136.13
  Q 64.11 136.62 53.47 136.61
  Q 14.19 136.61 1.81 136.69
  A 0.74 0.73 1.5 0 1 1.07 135.92
  Q 1.61 126.35 0.98 117.47
  Q 0.94 116.95 1.46 116.95
  Q 24.13 117.05 48.29 117.06
  Q 53.18 117.06 53.70 116.94
  Q 57.18 116.16 57.18 111.75
  Q 57.20 83.71 57.13 55.67
  Q 57.13 52.05 56.10 50.55
  Q 54.56 48.28 51.32 48.43
  Q 49.82 48.49 49.70 48.49
  Q 30.86 48.41 24.28 48.54
  Z"
/>
<path fill="currentColor" d="
  M 166.0000 89.5230
  A 14.71 14.71 0.0 0 1 151.3157 104.2586
  L 103.9758 104.3413
  A 14.71 14.71 0.0 0 1 89.2401 89.6570
  L 89.1600 43.7570
  A 14.71 14.71 0.0 0 1 103.8443 29.0214
  L 151.1842 28.9387
  A 14.71 14.71 0.0 0 1 165.9199 43.6230
  L 166.0000 89.5230
  Z
  M 145.7963 53.0783
  A 4.62 4.62 0.0 0 0 141.1682 48.4663
  L 114.0283 48.5137
  A 4.62 4.62 0.0 0 0 109.4163 53.1418
  L 109.4637 80.2817
  A 4.62 4.62 0.0 0 0 114.0918 84.8937
  L 141.2317 84.8463
  A 4.62 4.62 0.0 0 0 145.8437 80.2182
  L 145.7963 53.0783
  Z"
/>
<path fill="currentColor" d="
  M 199.17 82.75
  Q 201.34 84.93 204.54 84.97
  Q 213.15 85.10 224.67 84.90
  A 0.77 0.76 89.3 0 1 225.45 85.67
  L 225.45 103.55
  A 0.84 0.84 0.0 0 1 224.60 104.39
  Q 201.28 104.29 191.51 104.33
  Q 188.04 104.34 184.43 101.29
  C 178.96 96.67 178.41 92.78 178.38 85.39
  Q 178.30 66.91 178.30 48.43
  Q 178.30 40.54 179.54 37.72
  Q 181.90 32.34 187.58 29.58
  Q 188.33 29.21 189.32 29.18
  Q 195.31 29.00 243.25 29.06
  C 247.97 29.06 252.18 34.05 253.83 38.20
  Q 254.85 40.76 254.83 45.47
  Q 254.65 89.60 254.76 117.34
  Q 254.79 124.62 253.35 128.01
  Q 250.52 134.64 243.47 136.15
  Q 241.58 136.56 231.51 136.56
  Q 196.90 136.56 180.06 136.65
  Q 178.64 136.65 178.64 135.23
  L 178.64 118.45
  A 1.37 1.37 0.0 0 1 180.01 117.08
  Q 208.44 117.09 230.28 117.05
  Q 233.48 117.05 234.55 114.62
  Q 235.05 113.50 235.06 110.28
  Q 235.15 82.33 234.95 55.15
  Q 234.94 53.63 234.85 53.24
  C 233.92 49.19 233.55 48.53 229.13 48.50
  Q 209.67 48.38 204.50 48.37
  Q 202.03 48.36 200.05 49.31
  A 2.18 2.18 0.0 0 0 198.80 51.28
  L 198.80 81.86
  Q 198.80 82.38 199.17 82.75
  Z"
/>
<path fill="currentColor" d="
  M 22.34 172.76
  C 20.08 173.80 19.63 178.38 19.61 180.50
  Q 19.53 191.51 19.64 202.76
  Q 19.67 206.34 23.07 208.02
  Q 24.44 208.70 28.66 208.65
  Q 31.36 208.62 62.34 208.62
  A 0.62 0.62 0.0 0 1 62.96 209.24
  L 62.96 224.21
  A 2.19 2.19 0.0 0 1 60.77 226.40
  Q 37.66 226.45 12.08 226.40
  Q 9.20 226.39 7.62 225.18
  Q 4.44 222.76 2.43 219.53
  Q 1.30 217.73 1.32 212.74
  Q 1.42 180.95 1.28 166.93
  Q 1.24 163.20 2.45 160.85
  Q 6.49 152.95 16.24 152.95
  Q 52.73 152.95 62.18 152.93
  Q 63.13 152.92 63.13 153.87
  L 63.13 171.26
  A 0.57 0.56 -3.4 0 1 62.63 171.82
  Q 60.56 172.07 59.11 172.09
  Q 45.47 172.29 24.53 172.23
  Q 23.49 172.23 22.34 172.76
  Z"
/>
<path fill="currentColor" d="
  M 150.5804 212.8450
  A 13.57 13.57 0.0 0 1 137.0341 226.4386
  L 89.7141 226.5212
  A 13.57 13.57 0.0 0 1 76.1205 212.9749
  L 76.0396 166.6550
  A 13.57 13.57 0.0 0 1 89.5859 153.0614
  L 136.9059 152.9788
  A 13.57 13.57 0.0 0 1 150.4995 166.5251
  L 150.5804 212.8450
  Z
  M 131.4182 176.6332
  A 4.34 4.34 0.0 0 0 127.0933 172.2781
  L 99.5935 172.1821
  A 4.34 4.34 0.0 0 0 95.2384 176.5069
  L 95.1418 204.1668
  A 4.34 4.34 0.0 0 0 99.4667 208.5219
  L 126.9665 208.6179
  A 4.34 4.34 0.0 0 0 131.3216 204.2931
  L 131.4182 176.6332
  Z"
/>
<path fill="currentColor" d="
  M 198.82 171.89
  C 194.51 172.32 189.69 171.38 184.91 172.85
  A 1.46 1.45 7.3 0 0 184.14 173.44
  Q 182.92 175.36 182.91 176.75
  Q 182.63 211.35 182.71 225.52
  A 0.99 0.99 0.0 0 1 181.72 226.51
  L 164.33 226.51
  A 0.35 0.35 0.0 0 1 163.98 226.16
  Q 163.95 203.58 163.78 171.83
  Q 163.74 164.60 165.23 161.19
  Q 167.64 155.70 173.38 153.83
  Q 176.21 152.91 183.70 152.94
  Q 216.92 153.06 253.48 153.00
  A 1.14 1.13 -89.5 0 1 254.61 154.16
  Q 254.13 182.68 254.23 225.37
  A 1.04 1.04 0.0 0 1 253.19 226.42
  L 236.25 226.42
  Q 235.51 226.42 235.51 225.68
  L 235.51 172.29
  A 0.32 0.31 89.1 0 0 235.19 171.97
  Q 230.81 172.11 226.00 171.86
  Q 225.17 171.82 222.19 172.59
  Q 219.30 173.34 218.71 175.85
  Q 218.61 176.30 218.60 180.17
  Q 218.57 208.78 218.53 224.84
  A 1.57 1.57 0.0 0 1 216.96 226.41
  L 201.31 226.41
  Q 199.52 226.41 199.52 224.62
  L 199.52 172.53
  A 0.64 0.64 0.0 0 0 198.82 171.89
  Z"
/>
</svg>
