<?xml version="1.0" encoding="utf-8"?>
<svg viewBox="-1 -1 62 62" xmlns="http://www.w3.org/2000/svg">
  <g id="Icons">
    <path d="m58 12.657v40.343a6 6 0 0 1 -6 6h-44a6 6 0 0 1 -6-6v-46a6 6 0 0 1 6-6h38.343a4 4 0 0 1 2.829 1.172l7.656 7.656a4 4 0 0 1 1.172 2.829z" fill="#02a9f4"/>
    <path d="m56.828 9.828-7.656-7.656a4 4 0 0 0 -2.829-1.172h-3a4 4 0 0 1 2.829 1.172l7.656 7.656a4 4 0 0 1 1.172 2.829v40.343a6 6 0 0 1 -6 6h3a6 6 0 0 0 6-6v-40.343a4 4 0 0 0 -1.172-2.829z" fill="#0377bc"/>
    <path d="m12 29h36a2 2 0 0 1 2 2v28a0 0 0 0 1 0 0h-40a0 0 0 0 1 0 0v-28a2 2 0 0 1 2-2z" fill="#ffdf00"/>
    <path d="m48 29h-3a2 2 0 0 1 2 2v28h3v-28a2 2 0 0 0 -2-2z" fill="#fec108"/>
    <path d="m21 1v19h-6a2.006 2.006 0 0 1 -2-2v-17z" fill="#7f8e94"/>
    <path d="m40.949 54a3.316 3.316 0 0 1 -1.708-.463 2.764 2.764 0 0 1 -1.12-1.228l-1.491-5.109a2.174 2.174 0 0 0 -2-1.2h-9.257a2.174 2.174 0 0 0 -2 1.2l-1.491 5.111a2.764 2.764 0 0 1 -1.12 1.228 3.316 3.316 0 0 1 -1.711.461 2.824 2.824 0 0 1 -3.017-3.086l1.659-13.229a4.753 4.753 0 0 1 4.851-3.685h14.912a4.753 4.753 0 0 1 4.851 3.685l1.659 13.229a2.824 2.824 0 0 1 -3.017 3.086z" fill="#f5f5f5"/>
    <path d="m47 1.06v16.94a2.006 2.006 0 0 1 -2 2h-24v-19h25.34a3.683 3.683 0 0 1 .66.06z" fill="#9e9e9e"/>
    <path d="m46.34 1h-3a3.683 3.683 0 0 1 .66.06v16.94a2.006 2.006 0 0 1 -2 2h3a2.006 2.006 0 0 0 2-2v-16.94a3.683 3.683 0 0 0 -.66-.06z" fill="#707070"/>
    <rect fill="#f5f5f5" height="11" rx="2" width="6" x="37" y="5"/>
  </g>
  <g id="Icons_copy" data-name="Icons copy">
    <path d="m59 12.657a4.968 4.968 0 0 0 -1.465-3.535l-7.656-7.658a4.968 4.968 0 0 0 -3.536-1.464h-38.343a7.008 7.008 0 0 0 -7 7v46a7.008 7.008 0 0 0 7 7h44a7.008 7.008 0 0 0 7-7zm-45-10.657h6v17h-5a1 1 0 0 1 -1-1zm8 0h24v16a1 1 0 0 1 -1 1h-23zm-11 56v-27a1 1 0 0 1 1-1h36a1 1 0 0 1 1 1v27zm46-5a5.006 5.006 0 0 1 -5 5h-1v-27a3 3 0 0 0 -3-3h-36a3 3 0 0 0 -3 3v27h-1a5.006 5.006 0 0 1 -5-5v-46a5.006 5.006 0 0 1 5-5h4v16a3 3 0 0 0 3 3h30a3 3 0 0 0 3-3v-15.5a3.1 3.1 0 0 1 .465.38l7.656 7.658a3.017 3.017 0 0 1 .879 2.119z"/>
    <path d="m41 4h-2a3 3 0 0 0 -3 3v7a3 3 0 0 0 3 3h2a3 3 0 0 0 3-3v-7a3 3 0 0 0 -3-3zm1 10a1 1 0 0 1 -1 1h-2a1 1 0 0 1 -1-1v-7a1 1 0 0 1 1-1h2a1 1 0 0 1 1 1z"/>
    <path d="m43.294 37.519a5.716 5.716 0 0 0 -5.838-4.519h-14.912a5.722 5.722 0 0 0 -5.844 4.561l-1.653 13.188a3.424 3.424 0 0 0 .8 2.816 4.17 4.17 0 0 0 3.204 1.435 4.29 4.29 0 0 0 2.217-.6 3.734 3.734 0 0 0 1.523-1.679 1.014 1.014 0 0 0 .048-.13l1.467-5.028a1.2 1.2 0 0 1 1.066-.563h9.256a1.2 1.2 0 0 1 1.066.561l1.467 5.028a1.014 1.014 0 0 0 .048.13 3.725 3.725 0 0 0 1.515 1.674 4.3 4.3 0 0 0 2.225.607 4.17 4.17 0 0 0 3.208-1.435 3.4 3.4 0 0 0 .8-2.776zm-.663 14.753a2.4 2.4 0 0 1 -2.881.4 1.781 1.781 0 0 1 -.691-.723l-1.469-5.032a1.143 1.143 0 0 0 -.05-.134 3.166 3.166 0 0 0 -2.909-1.783h-9.262a3.166 3.166 0 0 0 -2.909 1.783 1.143 1.143 0 0 0 -.05.134l-1.469 5.036a1.788 1.788 0 0 1 -.7.728 2.408 2.408 0 0 1 -2.872-.409 1.48 1.48 0 0 1 -.344-1.234l1.654-13.186a3.777 3.777 0 0 1 3.865-2.852h14.912a3.775 3.775 0 0 1 3.859 2.81l1.665 13.269a1.452 1.452 0 0 1 -.349 1.193z"/>
    <path d="m26 39h-1v-1a1 1 0 0 0 -2 0v1h-1a1 1 0 0 0 0 2h1v1a1 1 0 0 0 2 0v-1h1a1 1 0 0 0 0-2z"/>
    <circle cx="36" cy="38" r="1"/>
    <circle cx="38" cy="40" r="1"/>
    <circle cx="36" cy="42" r="1"/>
    <circle cx="34" cy="40" r="1"/>
    <path d="m6 51a1 1 0 0 0 -1 1v2a1 1 0 0 0 2 0v-2a1 1 0 0 0 -1-1z"/>
    <path d="m54 51a1 1 0 0 0 -1 1v2a1 1 0 0 0 2 0v-2a1 1 0 0 0 -1-1z"/>
  </g>
</svg>