<?xml version="1.0" encoding="UTF-8" standalone="no"?>
<!DOCTYPE svg PUBLIC "-//W3C//DTD SVG 1.1//EN" "http://www.w3.org/Graphics/SVG/1.1/DTD/svg11.dtd">
<svg xmlns="http://www.w3.org/2000/svg" version="1.1" viewBox="0.00 0.00 256.00 256.00" class="w-5 h-5 inline">
<path fill="currentColor" d="
  M 74.44 148.65
  Q 75.16 148.96 75.82 148.52
  Q 79.77 145.87 84.56 144.16
  Q 86.73 143.39 90.17 142.87
  C 92.54 142.51 95.38 141.88 98.18 141.88
  Q 99.13 141.89 100.01 141.64
  Q 100.49 141.50 100.75 141.07
  Q 102.75 137.67 103.22 136.98
  Q 120.02 112.64 136.88 88.18
  A 2.96 2.91 62.3 0 0 137.39 86.49
  C 137.34 83.42 137.28 80.27 137.90 77.20
  Q 144.21 45.57 173.89 32.35
  Q 176.36 31.25 183.26 29.63
  Q 187.54 28.62 192.88 28.58
  Q 202.24 28.50 204.30 28.77
  Q 219.11 30.68 230.75 39.10
  Q 251.23 53.89 254.87 79.65
  Q 255.26 82.42 255.12 89.56
  Q 255.01 95.40 254.13 99.41
  Q 249.58 120.31 233.06 133.58
  Q 217.43 146.14 195.77 146.37
  Q 195.26 146.37 194.84 146.67
  L 141.95 184.33
  Q 141.54 184.62 141.54 185.12
  Q 141.29 208.35 122.24 221.26
  Q 113.31 227.30 102.53 227.97
  Q 75.20 229.65 61.28 207.45
  C 59.00 203.83 57.87 200.00 56.54 195.94
  A 2.27 2.24 2.5 0 0 55.26 194.56
  L 1.36 172.42
  A 0.10 0.09 8.3 0 1 1.29 172.33
  L 1.29 119.55
  A 0.87 0.86 11.4 0 1 2.49 118.76
  L 74.44 148.65
  Z
  M 234.39 87.44
  A 38.11 38.11 0.0 0 0 196.28 49.33
  A 38.11 38.11 0.0 0 0 158.17 87.44
  A 38.11 38.11 0.0 0 0 196.28 125.55
  A 38.11 38.11 0.0 0 0 234.39 87.44
  Z
  M 120.15 194.31
  C 115.37 205.93 102.53 212.24 90.53 208.84
  Q 88.78 208.35 80.52 204.90
  Q 78.25 203.95 70.73 200.63
  Q 69.41 200.04 70.14 201.29
  C 77.59 213.89 92.37 220.28 106.61 216.58
  C 116.40 214.04 124.49 206.98 128.32 197.67
  C 132.14 188.36 131.35 177.65 126.18 168.96
  C 118.66 156.32 103.66 150.47 89.50 154.19
  Q 88.10 154.56 89.45 155.07
  Q 97.14 158.00 99.42 158.92
  Q 107.72 162.28 109.30 163.16
  C 120.23 169.18 124.92 182.70 120.15 194.31
  Z"
/>
<circle fill="currentColor" cx="196.33" cy="87.27" r="30.03"/>
</svg>
