<?xml version="1.0" encoding="UTF-8" standalone="no"?>
<!DOCTYPE svg PUBLIC "-//W3C//DTD SVG 1.1//EN" "http://www.w3.org/Graphics/SVG/1.1/DTD/svg11.dtd">
<svg xmlns="http://www.w3.org/2000/svg" version="1.1" viewBox="0.00 0.00 256.00 256.00" class="w-5 h-5 inline">
<path fill="currentColor" d="
  M 16.23 79.10
  L 6.98 73.15
  Q 6.47 72.82 6.59 72.22
  Q 6.99 70.30 7.54 69.32
  Q 18.90 49.29 36.50 33.26
  Q 65.24 7.10 103.24 1.73
  Q 109.98 0.78 115.84 0.91
  C 121.63 1.03 127.12 0.72 132.70 1.25
  C 163.62 4.17 193.36 17.02 215.08 39.08
  Q 241.07 65.48 248.66 103.06
  Q 250.87 114.03 251.52 126.28
  C 253.73 167.97 235.27 207.32 201.67 232.13
  Q 169.96 255.56 129.04 255.84
  Q 76.24 256.20 40.00 219.99
  Q 16.10 196.10 7.56 161.77
  Q 7.15 160.13 5.40 150.12
  Q 4.31 143.90 4.20 138.33
  Q 3.94 125.50 4.21 123.74
  Q 6.43 109.53 6.95 107.23
  C 9.11 97.75 11.73 87.94 16.33 79.49
  A 0.30 0.30 0.0 0 0 16.23 79.10
  Z
  M 38.34 67.54
  Q 38.24 67.99 38.69 68.11
  Q 39.36 68.29 40.16 67.66
  Q 46.53 62.67 51.59 59.86
  Q 72.23 48.37 95.78 46.33
  Q 105.89 45.45 115.71 46.76
  Q 149.30 51.25 172.39 75.54
  C 187.81 91.75 196.16 112.65 195.84 135.24
  Q 195.44 162.84 180.11 183.34
  Q 163.65 205.36 135.56 209.06
  Q 112.01 212.16 92.59 199.69
  Q 83.11 193.60 77.42 184.34
  Q 64.11 162.70 71.46 138.18
  Q 75.08 126.12 82.73 116.61
  Q 84.60 114.28 81.71 114.96
  Q 81.51 115.00 80.24 115.99
  Q 55.17 135.64 56.61 166.31
  C 57.61 187.51 68.67 206.80 85.90 218.98
  Q 111.52 237.10 143.77 232.66
  Q 173.39 228.57 195.58 209.04
  C 212.74 193.93 224.44 172.50 228.09 149.54
  Q 234.33 110.30 214.55 76.91
  C 202.61 56.77 184.03 41.10 162.33 32.22
  Q 134.29 20.74 105.27 25.19
  Q 95.47 26.69 85.94 30.14
  Q 56.89 40.64 38.84 66.32
  Q 38.50 66.81 38.34 67.54
  Z
  M 33.65 156.43
  Q 34.34 152.54 34.74 149.65
  Q 35.43 144.81 35.92 142.88
  Q 42.26 118.32 59.43 102.96
  Q 79.28 85.22 108.44 85.63
  Q 119.90 85.79 131.16 89.68
  Q 149.96 96.18 163.51 110.69
  Q 169.43 117.04 170.62 118.62
  Q 171.19 119.38 172.13 119.40
  A 0.53 0.53 0.0 0 0 172.65 118.71
  Q 165.50 96.62 146.11 83.03
  Q 135.23 75.39 122.75 71.85
  Q 97.32 64.65 73.15 75.17
  Q 48.81 85.77 36.59 108.40
  Q 26.28 127.48 27.36 147.38
  Q 27.78 155.11 31.78 168.42
  A 1.68 1.62 10.3 0 0 32.40 169.28
  Q 32.92 169.64 33.17 169.57
  Q 34.08 169.31 34.01 168.62
  Q 33.10 159.55 33.65 156.43
  Z
  M 142.68 167.15
  A 1.35 1.32 45.3 0 1 142.67 165.53
  Q 145.41 161.92 145.89 161.13
  C 149.74 154.85 151.03 147.67 149.09 140.64
  Q 145.27 126.81 130.85 122.16
  Q 122.10 119.34 113.30 123.07
  C 99.10 129.08 90.45 142.36 92.52 157.72
  Q 94.15 169.84 103.73 177.94
  C 118.96 190.82 138.43 187.52 151.22 172.93
  A 0.33 0.33 0.0 0 0 151.14 172.43
  C 146.79 169.82 143.39 168.08 142.68 167.15
  Z"
/>
</svg>
