<?xml version="1.0" encoding="UTF-8" standalone="no"?>
<!DOCTYPE svg PUBLIC "-//W3C//DTD SVG 1.1//EN" "http://www.w3.org/Graphics/SVG/1.1/DTD/svg11.dtd">
<svg xmlns="http://www.w3.org/2000/svg" version="1.1" viewBox="0.00 0.00 256.00 256.00" class="w-5 h-5 inline">
<path fill="currentColor" d="
  M 128.50 1.56
  C 143.39 1.56 157.57 3.61 171.65 8.96
  Q 181.10 12.55 192.42 17.97
  A 1.36 1.34 -81.5 0 1 193.18 19.01
  Q 193.35 20.20 192.53 20.80
  Q 192.08 21.13 190.95 21.00
  Q 185.29 20.34 182.78 20.62
  Q 169.46 22.13 158.76 26.25
  Q 143.09 32.29 131.10 38.18
  Q 129.52 38.96 128.49 38.96
  Q 127.47 38.96 125.89 38.18
  Q 113.90 32.29 98.23 26.25
  Q 87.53 22.13 74.21 20.61
  Q 71.70 20.33 66.04 20.99
  Q 64.91 21.12 64.46 20.79
  Q 63.64 20.19 63.81 19.00
  A 1.36 1.34 81.5 0 1 64.57 17.96
  Q 75.89 12.54 85.34 8.96
  C 99.42 3.61 113.60 1.56 128.50 1.56
  Z"
/>
<path fill="currentColor" d="
  M 29.23 184.25
  C 27.45 191.74 26.85 197.61 28.63 204.08
  A 1.33 1.31 56.2 0 1 28.41 205.24
  Q 27.77 206.08 26.89 205.76
  Q 26.47 205.61 26.01 204.81
  C 23.14 199.72 19.51 194.46 16.78 189.19
  Q 10.09 176.30 6.52 163.81
  Q 3.81 154.32 1.84 138.93
  Q 0.62 129.42 1.85 119.11
  Q 3.58 104.61 5.45 97.46
  Q 13.26 67.55 33.11 44.40
  Q 36.63 40.30 39.99 37.99
  C 43.12 35.84 48.70 37.83 51.81 39.19
  C 66.74 45.71 77.23 55.80 91.32 68.09
  Q 93.11 69.65 94.59 71.36
  A 0.80 0.80 0.0 0 1 94.60 72.40
  Q 79.88 89.62 66.01 110.52
  Q 54.35 128.09 42.57 150.10
  Q 33.18 167.68 29.23 184.25
  Z"
/>
<path fill="currentColor" d="
  M 229.25 200.42
  Q 230.19 192.63 227.90 183.86
  Q 224.38 170.44 218.43 158.03
  Q 215.34 151.58 209.12 140.33
  Q 189.13 104.19 162.93 72.50
  A 1.21 1.21 0.0 0 1 163.05 70.83
  Q 171.05 63.60 177.98 57.49
  Q 190.08 46.83 199.22 42.20
  C 204.56 39.49 209.64 36.82 214.78 36.99
  Q 216.54 37.05 218.11 38.55
  Q 227.80 47.86 235.06 59.13
  Q 242.66 70.93 249.27 89.06
  C 254.66 103.89 255.58 120.93 254.93 136.76
  Q 253.85 163.02 241.26 187.01
  Q 239.38 190.59 231.83 203.56
  Q 231.12 204.78 229.45 204.60
  Q 228.70 204.52 228.82 203.77
  Q 228.91 203.18 229.25 200.42
  Z"
/>
<path fill="currentColor" d="
  M 128.54 104.18
  Q 129.18 104.18 130.12 104.78
  Q 136.10 108.66 141.27 113.39
  Q 167.14 137.01 186.10 159.44
  Q 192.53 167.05 201.62 180.39
  Q 209.84 192.47 214.44 206.62
  Q 215.20 208.96 215.52 214.02
  C 215.94 220.79 212.83 223.77 207.64 228.25
  Q 204.33 231.11 200.24 233.73
  C 182.62 245.01 161.53 254.01 141.25 254.63
  Q 138.59 254.71 128.53 254.71
  Q 118.48 254.71 115.82 254.63
  C 95.54 254.01 74.45 245.01 56.83 233.72
  Q 52.74 231.10 49.43 228.24
  C 44.24 223.76 41.13 220.78 41.55 214.01
  Q 41.87 208.95 42.63 206.61
  Q 47.23 192.46 55.46 180.38
  Q 64.55 167.04 70.98 159.43
  Q 89.94 137.01 115.81 113.39
  Q 120.98 108.66 126.96 104.78
  Q 127.90 104.18 128.54 104.18
  Z"
/>
</svg>
